<svg width="28" height="28" viewBox="0 0 28 28" fill="none" xmlns="http://www.w3.org/2000/svg">
<path d="M18.25 16.5C18.0511 16.5 17.8603 16.579 17.7197 16.7197C17.579 16.8603 17.5 17.0511 17.5 17.25C17.5 17.4489 17.579 17.6397 17.7197 17.7803C17.8603 17.921 18.0511 18 18.25 18H21.75C21.9489 18 22.1397 17.921 22.2803 17.7803C22.421 17.6397 22.5 17.4489 22.5 17.25C22.5 17.0511 22.421 16.8603 22.2803 16.7197C22.1397 16.579 21.9489 16.5 21.75 16.5H18.25ZM2.004 8.75C2.004 7.75544 2.39909 6.80161 3.10235 6.09835C3.80561 5.39509 4.75944 5 5.754 5H22.25C23.2446 5 24.1984 5.39509 24.9016 6.09835C25.6049 6.80161 26 7.75544 26 8.75V19.25C26 20.2446 25.6049 21.1984 24.9016 21.9017C24.1984 22.6049 23.2446 23 22.25 23H5.755C4.76044 23 3.80661 22.6049 3.10335 21.9017C2.40009 21.1984 2.005 20.2446 2.005 19.25V8.75H2.004ZM5.754 6.5C5.15726 6.5 4.58496 6.73705 4.16301 7.15901C3.74105 7.58097 3.504 8.15326 3.504 8.75V9.5H24.5V8.75C24.5 8.15326 24.2629 7.58097 23.841 7.15901C23.419 6.73705 22.8467 6.5 22.25 6.5H5.754ZM3.504 19.25C3.504 19.8467 3.74105 20.419 4.16301 20.841C4.58496 21.2629 5.15726 21.5 5.754 21.5H22.25C22.8467 21.5 23.419 21.2629 23.841 20.841C24.2629 20.419 24.5 19.8467 24.5 19.25V11H3.505V19.25H3.504Z" fill="black"/>
</svg>
