<svg width="26" height="26" viewBox="0 0 26 26" fill="none" xmlns="http://www.w3.org/2000/svg">
<g opacity="0.7">
<path d="M3.49826 6.13888L19.9655 22.2154M3.49826 6.13888C4.11094 5.43941 5.02604 4.99537 6.04844 4.99537H11.6153M3.49826 6.13888C3.00549 6.70145 2.70834 7.42924 2.70834 8.22412V20.0629C2.70834 21.8461 4.20375 23.2917 6.04844 23.2917H18.2954C20.1401 23.2917 21.6355 21.8461 21.6355 20.0629V15.2198M11.6153 15.2198L4.37839 22.2154M19.5062 6.36759V6.2988M23.2917 6.28804C23.2917 8.67451 19.5062 11.8565 19.5062 11.8565C19.5062 11.8565 15.7208 8.67451 15.7208 6.28804C15.7208 4.31102 17.4156 2.70833 19.5062 2.70833C21.5969 2.70833 23.2917 4.31102 23.2917 6.28804Z" stroke="black" stroke-width="2" stroke-linecap="round" stroke-linejoin="round"/>
</g>
</svg>
